# xmcd
#
# Track frame offsets:
# 150
# 4650
# 26025
# 38592
# 61770
# 82667
# 110700
# 131025
# 148950
# 166675
# 179925
# 194625
# 217050
#
# Disc length: 2976 seconds
#
#
# Revision: 0
# Processed by: cddbd v1.5PL3 Copyright (c) Steve Scherf et al.
# Submitted via: FreeRIP 2.35 
#
DISCID=bb0b9e0d
DTITLE=Brickhouse Blues Band - Payin' Our Dues
DYEAR=1997
DGENRE=Blues
TTITLE0=Prowlin'
TTITLE1=Kingsnake Boogie
TTITLE2=Rocket 88
TTITLE3=Rockin' at Midnight
TTITLE4=Love Me or Leave Me
TTITLE5=Stop You From Givin' Me The Blues
TTITLE6=Ain't Doin' Too Bad
TTITLE7=Ain't Got You
TTITLE8=Brick
TTITLE9=Got to Love Somebody
TTITLE10=I Go Crazy
TTITLE11=Payin' My Dues (and Playin' The Blues)
TTITLE12=Kat and Dog
EXTD=Tommy "Night Dog" Nichols\nBobby "Blind Boy" Carroll\nJack Freeman\nRonnie "Alleykat" Carroll
EXTT0=
EXTT1=
EXTT2=
EXTT3=
EXTT4=
EXTT5=
EXTT6=
EXTT7=
EXTT8=
EXTT9=
EXTT10=
EXTT11=
EXTT12=
PLAYORDER=
